<svg xmlns="http://www.w3.org/2000/svg" version="1.0" width="1024.000000pt" height="1024.000000pt" viewBox="0 0 1024.000000 1024.000000" preserveAspectRatio="xMidYMid meet">

<g transform="translate(0.000000,1024.000000) scale(0.100000,-0.100000)" fill="#565656" stroke="none">
<path d="M3913 7889 c-158 -31 -307 -166 -364 -330 -21 -61 -23 -82 -27 -445 -4 -329 -2 -389 12 -436 36 -127 175 -178 267 -101 58 49 59 59 59 441 0 341 0 349 23 392 61 123 230 114 288 -14 17 -37 19 -71 19 -389 0 -386 1 -395 64 -440 23 -16 45 -22 87 -22 71 0 127 35 157 97 20 40 22 67 28 393 5 250 3 371 -5 425 -46 288 -325 485 -608 429z" fill="#565656"/>
<path d="M6400 7890 c-187 -32 -347 -180 -395 -365 -12 -48 -15 -130 -15 -440 0 -379 0 -380 24 -431 35 -75 84 -109 156 -109 47 0 63 5 94 29 65 49 66 55 66 443 0 322 2 351 20 390 49 110 201 121 268 20 l27 -41 3 -345 c1 -190 5 -361 8 -379 6 -39 53 -95 94 -112 72 -30 170 12 210 89 18 36 20 69 26 412 5 263 3 392 -5 434 -51 271 -311 452 -581 405z" fill="#565656"/>
<path d="M3092 7309 c-135 -23 -297 -112 -392 -215 -95 -102 -173 -238 -207 -364 -17 -61 -18 -172 -18 -1945 l0 -1880 22 -81 c98 -356 388 -641 746 -737 l82 -22 1905 0 1905 0 90 28 c361 112 613 372 712 732 l28 100 0 1865 c0 2112 8 1903 -85 2095 -95 197 -254 340 -447 404 -66 22 -138 27 -163 11 -12 -8 -16 -54 -21 -277 -5 -241 -8 -275 -28 -338 -63 -196 -244 -388 -439 -464 -105 -42 -187 -54 -321 -48 -141 5 -221 26 -332 84 -171 89 -314 259 -376 448 -25 76 -27 92 -31 333 -4 246 -5 253 -26 264 -15 8 -139 11 -446 9 -367 -1 -426 -4 -441 -17 -15 -14 -18 -46 -21 -272 -4 -235 -6 -263 -27 -322 -71 -202 -218 -368 -406 -456 -130 -61 -218 -78 -374 -71 -142 6 -195 19 -321 80 -70 35 -102 59 -180 137 -104 104 -148 169 -188 282 -25 70 -26 84 -31 345 -4 187 -10 276 -18 284 -15 15 -87 20 -151 8z m4388 -3081 c0 -1323 3 -1258 -66 -1389 -71 -134 -223 -253 -374 -290 -46 -12 -360 -14 -1840 -14 l-1785 0 -71 26 c-192 70 -339 235 -379 427 -12 56 -15 263 -15 1250 l0 1182 2265 0 2265 0 0 -1192z" fill="#565656"/>
<path d="M3538 4944 c-15 -8 -32 -23 -38 -34 -5 -10 -10 -87 -10 -175 0 -152 1 -156 25 -180 24 -25 27 -25 190 -25 l167 0 29 29 29 29 0 152 0 152 -34 34 -34 34 -148 0 c-112 -1 -156 -4 -176 -16z" fill="#565656"/>
<path d="M4287 4944 c-15 -8 -32 -26 -37 -40 -6 -14 -10 -91 -10 -170 l0 -146 29 -29 29 -29 167 0 c163 0 166 0 190 25 25 24 25 27 25 189 l0 164 -31 26 c-30 26 -33 26 -182 26 -116 -1 -159 -4 -180 -16z" fill="#565656"/>
<path d="M5049 4945 c-43 -24 -51 -58 -47 -220 3 -147 3 -147 31 -171 27 -23 34 -24 183 -24 156 0 185 5 211 39 9 11 12 65 13 173 0 152 -1 158 -24 185 l-24 28 -159 2 c-123 2 -164 0 -184 -12z" fill="#565656"/>
<path d="M5797 4940 c-36 -29 -47 -76 -47 -207 0 -121 7 -150 41 -182 21 -19 34 -21 182 -21 94 0 166 4 179 11 36 19 48 69 48 202 0 210 -8 217 -228 217 -135 0 -152 -2 -175 -20z" fill="#565656"/>
<path d="M6539 4931 l-29 -29 0 -157 0 -157 29 -29 29 -29 157 0 c88 0 165 4 176 10 39 21 49 62 49 195 0 215 -10 225 -228 225 l-154 0 -29 -29z" fill="#565656"/>
<path d="M3521 4194 l-31 -26 0 -162 c0 -159 1 -164 25 -190 l24 -26 168 0 c116 1 173 4 184 13 33 26 39 55 39 207 l0 152 -29 29 -29 29 -160 0 c-158 0 -161 0 -191 -26z" fill="#565656"/>
<path d="M4295 4206 c-47 -20 -55 -50 -55 -211 0 -144 0 -145 28 -175 31 -34 35 -35 240 -32 116 2 124 3 147 27 24 24 25 28 25 180 0 88 -4 165 -10 176 -22 40 -61 49 -207 49 -91 -1 -148 -5 -168 -14z" fill="#565656"/>
<path d="M5033 4196 l-28 -24 0 -167 0 -167 28 -24 c27 -23 33 -24 193 -24 l165 0 24 26 c24 26 25 31 25 190 l0 162 -31 26 c-30 26 -33 26 -189 26 -154 0 -160 -1 -187 -24z" fill="#565656"/>
<path d="M5788 4191 c-32 -29 -33 -31 -37 -127 -5 -144 6 -222 34 -250 23 -23 29 -24 190 -24 162 0 167 1 190 24 32 32 38 72 33 218 -5 184 -10 188 -228 188 l-150 0 -32 -29z" fill="#565656"/>
<path d="M6539 4191 l-29 -29 0 -155 c0 -153 0 -156 26 -186 l26 -31 171 2 171 3 24 35 c23 34 23 41 20 183 l-3 149 -33 29 -32 29 -156 0 -156 0 -29 -29z" fill="#565656"/>
<path d="M3554 3470 c-12 -4 -31 -21 -43 -36 -19 -24 -21 -39 -21 -170 0 -219 5 -224 220 -224 149 0 188 9 210 49 5 11 10 86 10 171 0 85 -5 160 -10 171 -22 40 -61 49 -207 48 -76 0 -148 -4 -159 -9z" fill="#565656"/>
<path d="M4294 3464 c-47 -23 -54 -50 -54 -205 0 -154 10 -192 56 -209 14 -6 89 -10 167 -10 218 0 227 10 220 240 -5 145 -14 173 -59 190 -43 17 -294 12 -330 -6z" fill="#565656"/>
<path d="M5065 3471 c-11 -5 -29 -19 -40 -31 -18 -20 -20 -39 -23 -170 -5 -228 1 -233 238 -228 l152 3 24 28 c23 27 24 34 24 177 0 82 -4 160 -10 174 -17 46 -55 56 -207 55 -76 0 -147 -4 -158 -8z" fill="#565656"/>
<path d="M5812 3465 c-50 -22 -62 -63 -62 -205 0 -209 11 -220 227 -220 l153 0 32 29 33 29 3 147 c5 228 -1 235 -215 235 -97 -1 -148 -5 -171 -15z" fill="#565656"/>
<path d="M6553 3460 c-18 -11 -35 -30 -38 -43 -4 -13 -5 -93 -3 -177 l3 -152 28 -24 c27 -23 34 -24 172 -24 79 0 155 4 169 10 49 18 61 53 65 189 6 224 -9 241 -224 241 -122 0 -144 -3 -172 -20z" fill="#565656"/>
</g>
</svg>